<?xml version="1.0" standalone="no"?>
<!DOCTYPE svg PUBLIC "-//W3C//DTD SVG 20010904//EN"
 "http://www.w3.org/TR/2001/REC-SVG-20010904/DTD/svg10.dtd">
<svg version="1.0" xmlns="http://www.w3.org/2000/svg"
 width="734.000000pt" height="1280.000000pt" viewBox="0 0 734.000000 1280.000000"
 preserveAspectRatio="xMidYMid meet">
<metadata>
Created by potrace 1.15, written by Peter Selinger 2001-2017
</metadata>
<g transform="translate(0.000000,1280.000000) scale(0.100000,-0.100000)"
fill="#000000" stroke="none">
<path d="M3570 12260 c-541 -36 -1157 -241 -1710 -571 -248 -148 -373 -251
-521 -429 -232 -282 -445 -663 -607 -1090 -102 -269 -193 -616 -192 -737 1
-75 9 -69 282 203 476 473 837 782 1115 954 48 29 142 93 208 141 238 173 556
358 591 345 8 -3 12 -2 9 3 -7 12 31 24 46 15 7 -4 9 -3 6 4 -10 15 170 74
317 103 90 18 269 39 336 39 133 0 314 -30 439 -74 59 -21 192 -85 148 -72
-10 3 -15 2 -12 -4 3 -6 11 -10 16 -10 15 0 118 -67 172 -112 27 -22 50 -38
53 -35 7 7 -90 82 -152 118 -30 17 -54 33 -54 36 0 7 86 -43 130 -75 55 -41
169 -153 204 -202 38 -52 90 -140 83 -140 -3 0 -24 32 -47 71 -35 59 -159 205
-160 189 0 -3 23 -30 50 -60 55 -59 104 -130 140 -197 23 -45 33 -55 24 -25
-12 38 37 -60 61 -123 83 -221 86 -486 8 -755 -50 -173 -129 -336 -415 -851
-372 -669 -441 -808 -527 -1052 -73 -209 -96 -365 -88 -607 8 -235 40 -420
127 -722 40 -136 50 -184 25 -118 -12 34 -13 32 -13 -45 0 -80 -16 -184 -34
-218 -5 -10 -11 -27 -13 -37 -2 -11 -18 -40 -35 -65 -141 -204 -184 -538 -104
-812 52 -181 94 -259 329 -618 184 -282 260 -432 338 -670 128 -390 155 -613
177 -1490 13 -499 33 -743 76 -952 113 -547 410 -876 866 -959 127 -23 350
-20 477 6 287 58 529 177 717 352 329 308 423 727 278 1255 -73 268 -221 589
-541 1178 -306 563 -421 804 -508 1070 -57 173 -87 316 -145 710 -58 385 -63
417 -96 549 -94 373 -235 583 -488 724 -56 31 -58 34 -8 15 11 -4 5 7 -14 28
-43 46 -102 133 -125 183 -17 37 -18 29 -2 -29 3 -11 3 -17 -1 -14 -11 10
-104 345 -135 484 -41 183 -54 276 -54 385 1 250 85 449 499 1185 350 622 446
816 542 1101 65 192 92 340 99 541 11 335 -51 604 -217 938 -95 190 -180 312
-315 453 -164 172 -322 284 -550 393 -330 156 -710 225 -1105 199z m90 -6103
c0 -2 -10 -12 -22 -23 l-23 -19 19 23 c18 21 26 27 26 19z"/>
<path d="M3288 11213 c7 -3 16 -2 19 1 4 3 -2 6 -13 5 -11 0 -14 -3 -6 -6z"/>
<path d="M3603 11213 c9 -2 23 -2 30 0 6 3 -1 5 -18 5 -16 0 -22 -2 -12 -5z"/>
<path d="M3728 11193 c7 -3 16 -2 19 1 4 3 -2 6 -13 5 -11 0 -14 -3 -6 -6z"/>
<path d="M3768 11183 c7 -3 16 -2 19 1 4 3 -2 6 -13 5 -11 0 -14 -3 -6 -6z"/>
<path d="M3815 11170 c11 -5 27 -9 35 -9 9 0 8 4 -5 9 -11 5 -27 9 -35 9 -9 0
-8 -4 5 -9z"/>
<path d="M3888 11148 c5 -5 16 -8 23 -6 8 3 3 7 -10 11 -17 4 -21 3 -13 -5z"/>
<path d="M3987 11109 c7 -7 15 -10 18 -7 3 3 -2 9 -12 12 -14 6 -15 5 -6 -5z"/>
<path d="M4490 10611 c0 -6 4 -13 10 -16 6 -3 7 1 4 9 -7 18 -14 21 -14 7z"/>
<path d="M4511 10570 c0 -8 4 -22 9 -30 12 -18 12 -2 0 25 -6 13 -9 15 -9 5z"/>
<path d="M4561 10414 c0 -11 3 -14 6 -6 3 7 2 16 -1 19 -3 4 -6 -2 -5 -13z"/>
<path d="M4572 10370 c0 -14 2 -19 5 -12 2 6 2 18 0 25 -3 6 -5 1 -5 -13z"/>
<path d="M4582 10320 c0 -14 2 -19 5 -12 2 6 2 18 0 25 -3 6 -5 1 -5 -13z"/>
<path d="M4594 10150 c0 -69 1 -97 3 -62 2 34 2 90 0 125 -2 34 -3 6 -3 -63z"/>
<path d="M4582 9970 c0 -14 2 -19 5 -12 2 6 2 18 0 25 -3 6 -5 1 -5 -13z"/>
<path d="M4656 7679 c-8 -42 0 -50 9 -9 4 17 5 34 2 36 -2 3 -7 -10 -11 -27z"/>
<path d="M4642 7605 c0 -16 2 -22 5 -12 2 9 2 23 0 30 -3 6 -5 -1 -5 -18z"/>
<path d="M4633 7535 c0 -22 2 -30 4 -17 2 12 2 30 0 40 -3 9 -5 -1 -4 -23z"/>
<path d="M4623 7450 c0 -25 2 -35 4 -22 2 12 2 32 0 45 -2 12 -4 2 -4 -23z"/>
<path d="M4633 7355 c0 -22 2 -30 4 -17 2 12 2 30 0 40 -3 9 -5 -1 -4 -23z"/>
</g>
</svg>
